{"title":"Game.of.Thrones.S02E10.HDTV.XviD-Atilla82","uid":7327896,"size":427454407,"categoryP":"video","categoryS":"tv_shows","magnet":"?xt=urn:btih:c0a8202eb06a0caad8429cbc9978467f0448664f&amp;dn=Game.of.Thrones.S02E10.HDTV.XviD-Atilla82&amp;tr=udp%3A%2F%2Ftracker.openbittorrent.com%3A80&amp;tr=udp%3A%2F%2Fopen.demonii.com%3A1337&amp;tr=udp%3A%2F%2Ftracker.coppersurfer.tk%3A6969&amp;tr=udp%3A%2F%2Fexodus.desync.com%3A6969","seeders":2,"leechers":0,"uploader":"Atilla82","files":3,"time":1338818675,"description":"Game.of.Thrones.S02E10.HDTV.XviD-Atilla82\n\nscreenshots included in torrent\n\n\nGame of Thrones (2012)\n &lt;a href=&quot;\nhttp://www.imdb.com/title/tt0944947/&quot; rel=&quot;nofollow&quot; target=&quot;_NEW&quot;&gt;\nhttp://www.imdb.com/title/tt0944947/&lt;/a&gt;\n\nSeven noble families fight for control of the mythical land of Westeros.\n\nlanguage: English\n\n\nGeneral\nComplete name                            : Game.of.Thrones.S02E10.HDTV.XviD-Atilla82.avi\nFormat                                   : AVI\nFormat/Info                              : Audio Video Interleave\nFile size                                : 407 MiB\nDuration                                 : 1h 5mn\nOverall bit rate                         : 871 Kbps\nWriting application                      : Lavf52.61.0\n\nVideo\nID                                       : 0\nFormat                                   : MPEG-4 Visual\nFormat profile                           : Advanced Simple@L5\nFormat settings, BVOP                    : No\nFormat settings, QPel                    : Yes\nFormat settings, GMC                     : No warppoints\nFormat settings, Matrix                  : Default (H.263)\nCodec ID                                 : XVID\nCodec ID/Hint                            : XviD\nDuration                                 : 1h 5mn\nBit rate                                 : 730 Kbps\nWidth                                    : 680 pixels\nHeight                                   : 380 pixels\nDisplay aspect ratio                     : 16:9\nFrame rate                               : 23.976 fps\nColor space                              : YUV\nChroma subsampling                       : 4:2:0\nBit depth                                : 8 bits\nScan type                                : Progressive\nCompression mode                         : Lossy\nBits/(Pixel*Frame)                       : 0.118\nStream size                              : 342 MiB (84%)\nWriting library                          : XviD 64\n\nAudio\nID                                       : 1\nFormat                                   : MPEG Audio\nFormat version                           : Version 1\nFormat profile                           : Layer 3\nCodec ID                                 : 55\nCodec ID/Hint                            : MP3\nDuration                                 : 1h 5mn\nBit rate mode                            : Constant\nBit rate                                 : 128 Kbps\nChannel(s)                               : 2 channels\nSampling rate                            : 48.0 KHz\nCompression mode                         : Lossy\nStream size                              : 59.9 MiB (15%)\nAlignment                                : Aligned on interleaves\nInterleave, duration                     : 24 ms (0.58 video frame)\n\n\n\nSCREENS &lt;a href=&quot;\nhttp://www.pohrani.com/f/H/sE/47FG9qK7/gameofthroness02e10hdtvx.jpg&quot; rel=&quot;nofollow&quot; target=&quot;_NEW&quot;&gt;\nhttp://www.pohrani.com/f/H/sE/47FG9qK7/gameofthroness02e10hdtvx.jpg&lt;/a&gt;\n\n","torrent":{"xt":"urn:btih:c0a8202eb06a0caad8429cbc9978467f0448664f","amp;dn":"Game.of.Thrones.S02E10.HDTV.XviD-Atilla82","amp;tr":["udp%3A%2F%2Ftracker.openbittorrent.com%3A80","udp%3A%2F%2Fopen.demonii.com%3A1337","udp%3A%2F%2Ftracker.coppersurfer.tk%3A6969","udp%3A%2F%2Fexodus.desync.com%3A6969"],"infoHash":"c0a8202eb06a0caad8429cbc9978467f0448664f","infoHashBuffer":{"type":"Buffer","data":[192,168,32,46,176,106,12,170,216,66,156,188,153,120,70,127,4,72,102,79]},"announce":[],"urlList":[]}}